# Blender v2.92.0 OBJ File: 'redstone_energy_generator.blend'
# www.blender.org
mtllib redstone_energy_generator.mtl
o Cube
v 1.000000 0.375000 0.000000
v 1.000000 0.000000 0.000000
v 1.000000 0.375000 1.000000
v 1.000000 0.000000 1.000000
v 0.000000 0.375000 0.000000
v 0.000000 0.000000 0.000000
v 0.000000 0.375000 1.000000
v 0.000000 0.000000 1.000000
v 0.000000 0.000000 0.875000
v 0.812500 0.375000 0.687500
v 0.000000 0.375000 0.875000
v 1.000000 0.000000 0.875000
v 0.125000 0.000000 0.000000
v 0.125000 0.375000 1.000000
v 0.125000 0.000000 1.000000
v 0.125000 0.375000 0.000000
v 0.125000 0.000000 0.875000
v 0.437500 0.375000 0.687500
v 0.000000 0.375000 0.125000
v 1.000000 0.000000 0.125000
v 0.000000 0.000000 0.125000
v 0.812500 0.375000 0.312500
v 0.437500 0.375000 0.312500
v 0.125000 0.000000 0.125000
v 0.125000 0.875000 1.000000
v 0.000000 0.875000 1.000000
v 0.687500 0.687500 0.875000
v 1.000000 0.875000 1.000000
v 0.000000 0.875000 0.125000
v 0.000000 0.875000 0.000000
v 0.125000 0.875000 0.000000
v 1.000000 0.875000 0.000000
v 0.000000 0.875000 0.875000
v 0.562500 0.687500 0.875000
v 0.562500 0.687500 0.125000
v 0.687500 0.687500 0.125000
v 0.125000 1.000000 1.000000
v 0.000000 1.000000 1.000000
v 1.000000 1.000000 1.000000
v 0.000000 1.000000 0.125000
v 0.000000 1.000000 0.000000
v 0.125000 1.000000 0.000000
v 1.000000 1.000000 0.000000
v 0.000000 1.000000 0.875000
v 1.000000 1.000000 0.125000
v 0.125000 1.000000 0.125000
v 0.125000 1.000000 0.875000
v 1.000000 1.000000 0.875000
v 0.687500 0.562500 0.125000
v 0.687500 0.562500 0.875000
v 0.562500 0.562500 0.875000
v 0.562500 0.562500 0.125000
v 0.812500 0.437500 0.312500
v 0.812500 0.437500 0.687500
v 0.437500 0.437500 0.687500
v 0.437500 0.437500 0.312500
v 0.250000 0.375000 0.875000
v 1.000000 0.375000 0.875000
v 1.000000 0.875000 0.875000
v 0.250000 0.875000 0.875000
v 0.593290 0.593290 0.750000
v 0.656710 0.593290 0.750000
v 0.656710 0.656710 0.750000
v 0.593290 0.656710 0.750000
v 0.250000 0.875000 0.125000
v 0.250000 0.375000 0.125000
v 1.000000 0.375000 0.125000
v 1.000000 0.875000 0.125000
v 0.594129 0.655871 0.250000
v 0.594129 0.594129 0.250000
v 0.655871 0.594129 0.250000
v 0.655871 0.655871 0.250000
vt 0.735017 0.625000
vt 0.639983 0.625000
vt 0.639983 0.625000
vt 0.735017 0.625000
vt 0.650368 0.562500
vt 0.724632 0.562500
vt 0.724632 0.562500
vt 0.650368 0.562500
vt 0.639983 0.625000
vt 0.735017 0.625000
vt 0.639983 0.625000
vt 0.735017 0.625000
vt 0.724632 0.562500
vt 0.650368 0.562500
vt 0.724632 0.562500
vt 0.650368 0.562500
vt 0.125000 0.312500
vt 0.125000 0.687500
vt 0.000000 0.687500
vt 0.000000 0.312500
vt 0.875000 0.312500
vt 0.875000 0.687500
vt 1.000000 0.687500
vt 1.000000 0.312500
vt 0.125000 0.125000
vt 1.000000 0.125000
vt 1.000000 0.000000
vt 0.125000 0.000000
vt 0.125000 0.312500
vt 0.125000 0.687500
vt 0.000000 0.687500
vt 0.000000 0.312500
vt 0.125000 0.312500
vt 0.125000 0.687500
vt 1.000000 0.687500
vt 1.000000 0.312500
vt 0.875000 0.312500
vt 0.875000 0.687500
vt 0.125000 0.875000
vt 1.000000 0.875000
vt 0.125000 0.687500
vt 0.125000 0.312500
vt 0.691157 0.435586
vt 0.308843 0.435586
vt 0.308843 0.499305
vt 0.691157 0.499305
vt 0.000000 0.875000
vt 0.000000 0.125000
vt 0.000000 0.312500
vt 0.000000 0.687500
vt 0.000000 0.000000
vt 1.000000 0.312500
vt 1.000000 0.687500
vt 0.000000 1.000000
vt 0.125000 1.000000
vt 1.000000 1.000000
vt 0.812500 0.687500
vt 0.812500 0.312500
vt 1.000000 0.125000
vt 1.000000 0.875000
vt 0.437500 0.312500
vt 0.250000 0.125000
vt 0.437500 0.687500
vt 0.250000 0.875000
vt 0.691157 0.691157
vt 0.308843 0.691157
vt 0.308843 0.308843
vt 0.691157 0.308843
vt 0.308843 0.435586
vt 0.691157 0.435586
vt 0.691157 0.499305
vt 0.308843 0.499305
vt 0.691157 0.435586
vt 0.691157 0.499305
vt 0.308843 0.435586
vt 0.308843 0.499305
vt 0.000000 0.375000
vt 0.125000 0.375000
vt 0.125000 0.875000
vt 0.000000 0.875000
vt 1.000000 0.375000
vt 0.875000 0.375000
vt 0.875000 0.875000
vt 1.000000 0.875000
vt 0.125000 0.437500
vt 0.875000 0.437500
vt 0.875000 0.937500
vt 0.125000 0.937500
vt 0.125000 0.375000
vt 0.000000 0.375000
vt 0.000000 0.875000
vt 0.125000 0.875000
vt 1.000000 0.375000
vt 1.000000 0.875000
vt 0.000000 0.187500
vt 0.125000 0.187500
vt 0.125000 0.687500
vt 0.000000 0.687500
vt 0.125000 0.375000
vt 0.125000 0.875000
vt 1.000000 0.375000
vt 1.000000 0.875000
vt 0.875000 0.187500
vt 1.000000 0.187500
vt 1.000000 0.687500
vt 0.875000 0.687500
vt 0.875000 0.875000
vt 0.875000 0.125000
vt 0.125000 0.125000
vt 0.125000 0.875000
vt 0.125000 1.000000
vt 0.000000 1.000000
vt 0.125000 1.000000
vt 0.875000 1.000000
vt 0.000000 1.000000
vt 0.125000 1.000000
vt 1.000000 1.000000
vt 1.000000 1.000000
vt 1.000000 1.000000
vt 0.125000 0.000000
vt 0.125000 0.875000
vt 0.000000 0.875000
vt 0.000000 -0.000000
vt 1.000000 0.875000
vt 0.875000 0.875000
vt 1.000000 0.000000
vt 0.875000 0.000000
vt 1.000000 0.812500
vt 0.875000 0.812500
vt 0.125000 0.812500
vt 0.000000 0.812500
vt 0.437500 0.625000
vt 0.562500 0.625000
vt 0.875000 0.437500
vt 0.562500 0.750000
vt 0.875000 0.937500
vt 0.437500 0.750000
vt 0.437500 0.625000
vt 0.437500 0.750000
vt 0.125000 0.937500
vt 0.125000 0.437500
vt 0.562500 0.625000
vt 0.875000 0.437500
vt 0.562500 0.750000
vt 0.875000 0.937500
vn 0.0000 0.9710 -0.2392
vn 0.0000 0.9694 0.2453
vn 0.0000 0.0000 -1.0000
vn 0.9710 0.0000 -0.2392
vn -0.9710 0.0000 -0.2392
vn 0.0000 -0.9710 -0.2392
vn 0.0000 0.0000 1.0000
vn 0.0000 -0.9694 0.2453
vn 0.9694 0.0000 0.2453
vn -0.9694 0.0000 0.2453
vn -1.0000 0.0000 0.0000
vn 0.0000 -1.0000 0.0000
vn 1.0000 0.0000 0.0000
vn 0.0000 1.0000 0.0000
usemtl MaterialAbsorber
s off
f 34/1/1 27/2/1 63/3/1 64/4/1
f 36/5/2 35/6/2 69/7/2 72/8/2
f 62/9/3 61/10/3 64/4/3 63/3/3
f 27/2/4 50/11/4 62/9/4 63/3/4
f 51/12/5 34/1/5 64/4/5 61/10/5
f 50/11/6 51/12/6 61/10/6 62/9/6
f 70/13/7 71/14/7 72/8/7 69/7/7
f 52/15/8 49/16/8 71/14/8 70/13/8
f 49/16/9 36/5/9 72/8/9 71/14/9
f 35/6/10 52/15/10 70/13/10 69/7/10
usemtl MaterialBottom
f 15/17/7 14/18/7 7/19/7 8/20/7
f 21/21/11 19/22/11 5/23/11 6/24/11
f 17/25/12 12/26/12 4/27/12 15/28/12
f 12/29/13 58/30/13 3/31/13 4/32/13
f 13/33/3 16/34/3 1/35/3 2/36/3
f 20/37/13 67/38/13 58/30/13 12/29/13
f 24/39/12 20/40/12 12/26/12 17/25/12
f 8/20/11 7/19/11 11/41/11 9/42/11
f 22/43/3 23/44/3 56/45/3 53/46/3
f 21/47/12 24/39/12 17/25/12 9/48/12
f 6/49/3 5/50/3 16/34/3 13/33/3
f 9/48/12 17/25/12 15/28/12 8/51/12
f 4/52/7 3/53/7 14/18/7 15/17/7
f 6/54/12 13/55/12 24/39/12 21/47/12
f 13/55/12 2/56/12 20/40/12 24/39/12
f 2/36/13 1/35/13 67/38/13 20/37/13
f 9/42/11 11/41/11 19/22/11 21/21/11
f 22/57/14 10/58/14 58/59/14 67/60/14
f 10/58/14 18/61/14 57/62/14 58/59/14
f 18/61/14 23/63/14 66/64/14 57/62/14
f 23/63/14 22/57/14 67/60/14 66/64/14
f 53/65/14 56/66/14 55/67/14 54/68/14
f 18/69/7 10/70/7 54/71/7 55/72/7
f 23/73/11 18/69/11 55/72/11 56/74/11
f 10/75/13 22/43/13 53/46/13 54/76/13
usemtl MaterialUpperBase
f 7/77/7 14/78/7 25/79/7 26/80/7
f 5/81/11 19/82/11 29/83/11 30/84/11
f 57/85/13 66/86/13 65/87/13 60/88/13
f 16/89/3 5/90/3 30/91/3 31/92/3
f 1/93/3 16/89/3 31/92/3 32/94/3
f 3/95/13 58/96/13 59/97/13 28/98/13
f 11/99/11 7/77/11 26/80/11 33/100/11
f 14/78/7 3/101/7 28/102/7 25/79/7
f 67/103/13 1/104/13 32/105/13 68/106/13
f 19/82/11 11/99/11 33/100/11 29/83/11
f 65/107/12 68/108/12 59/109/12 60/110/12
f 26/80/7 25/79/7 37/111/7 38/112/7
f 29/83/11 33/100/11 44/113/11 40/114/11
f 31/92/3 30/91/3 41/115/3 42/116/3
f 32/94/3 31/92/3 42/116/3 43/117/3
f 25/79/7 28/102/7 39/118/7 37/111/7
f 33/100/11 26/80/11 38/112/11 44/113/11
f 30/84/11 29/83/11 40/114/11 41/119/11
f 48/120/14 47/121/14 37/122/14 39/123/14
f 47/121/14 44/113/14 38/112/14 37/122/14
f 42/124/14 41/119/14 40/114/14 46/125/14
f 43/126/14 42/124/14 46/125/14 45/127/14
f 46/125/14 40/114/14 44/113/14 47/121/14
f 45/127/14 46/125/14 47/121/14 48/120/14
f 43/128/13 45/129/13 68/106/13 32/105/13
f 45/129/13 48/130/13 59/97/13 68/106/13
f 48/130/13 39/131/13 28/98/13 59/97/13
f 51/132/3 50/133/3 58/134/3 57/85/3
f 50/133/3 27/135/3 59/136/3 58/134/3
f 34/137/3 51/132/3 57/85/3 60/88/3
f 27/135/3 34/137/3 60/88/3 59/136/3
f 52/138/7 35/139/7 65/140/7 66/141/7
f 49/142/7 52/138/7 66/141/7 67/143/7
f 36/144/7 49/142/7 67/143/7 68/145/7
f 35/139/7 36/144/7 68/145/7 65/140/7
