# Blender v2.92.0 OBJ File: ''
# www.blender.org
mtllib test.mtl
o Cube
v 0.999981 0.499966 0.000471
v 0.999981 0.000000 0.000471
v 0.999981 0.499966 1.000471
v 0.999981 0.000000 1.000471
v -0.000019 0.499966 0.000471
v -0.000019 0.000000 0.000471
v -0.000019 0.499966 1.000471
v -0.000019 0.000000 1.000471
vt 1.000000 0.000000
vt 1.000000 1.000000
vt 0.000000 1.000000
vt 0.000000 0.000000
vt 1.000000 0.000000
vt 1.000000 0.500000
vt -0.000000 0.500000
vt 0.000000 -0.000000
vt 1.000000 -0.000000
vt 1.000000 0.500000
vt 0.000000 0.500000
vt -0.000000 0.000000
vt 1.000000 -0.000000
vt 1.000000 1.000000
vt 0.000000 1.000000
vt 1.000000 -0.000000
vt 1.000000 0.500000
vt 0.000000 0.500000
vt -0.000000 0.000000
vt 1.000000 0.500000
vt 0.000000 0.500000
vt -0.000000 0.000000
vn 0.0000 1.0000 0.0000
vn 0.0000 0.0000 1.0000
vn -1.0000 0.0000 0.0000
vn 0.0000 -1.0000 0.0000
vn 1.0000 0.0000 0.0000
vn 0.0000 0.0000 -1.0000
usemtl Material
s off
f 1/1/1 5/2/1 7/3/1 3/4/1
f 4/5/2 3/6/2 7/7/2 8/8/2
f 8/9/3 7/10/3 5/11/3 6/12/3
f 6/13/4 2/14/4 4/15/4 8/8/4
f 2/16/5 1/17/5 3/18/5 4/19/5
f 6/13/6 5/20/6 1/21/6 2/22/6
o Cube.001_Cube.002
v 0.611694 0.601913 0.388758
v 0.656798 0.500000 0.343654
v 0.611694 0.601913 0.612184
v 0.656798 0.500000 0.657288
v 0.388268 0.601913 0.388758
v 0.343164 0.500000 0.343654
v 0.388268 0.601913 0.612184
v 0.343164 0.500000 0.657288
v 0.749981 0.749966 0.750471
v 0.249981 0.749966 0.750471
v 0.749981 0.749966 0.250471
v 0.249981 0.749966 0.250471
v 0.681588 0.749966 0.682078
v 0.318373 0.749966 0.682078
v 0.681588 0.749966 0.318863
v 0.318373 0.749966 0.318863
vt 0.625000 0.437500
vt 0.625000 0.687500
vt 0.375000 0.687500
vt 0.375000 0.437500
vt 0.666486 0.093183
vt 0.933255 0.000000
vt 0.933255 0.500000
vt 0.666486 0.406817
vt 1.000000 0.687500
vt 0.750000 0.812500
vt 0.750000 0.187500
vt 1.000000 0.312500
vt 0.266769 0.686367
vt 0.580403 0.686367
vt 0.580403 1.000000
vt 0.266769 1.000000
vt 0.000000 0.593183
vt 0.266769 0.500000
vt 0.266769 1.000000
vt 0.000000 0.906817
vt 0.399716 0.406817
vt 0.213455 0.500000
vt 0.213455 0.000000
vt 0.399716 0.093183
vt 0.029197 0.068392
vt 0.029197 0.431608
vt 0.000000 0.500000
vt 0.000000 0.000000
vt 0.184258 0.068392
vt 0.184258 0.431608
vt 0.375000 0.687500
vt 0.625000 0.687500
vt 0.687500 0.875000
vt 0.312500 0.875000
vt 0.375000 0.437500
vt 0.187500 0.750000
vt 0.187500 0.375000
vt 0.625000 0.437500
vt 0.812500 0.375000
vt 0.812500 0.750000
vt 0.312500 0.250000
vt 0.687500 0.250000
vn 0.0000 1.0000 0.0000
vn 0.0000 -0.3493 0.9370
vn -0.9370 -0.3493 0.0000
vn 0.0000 -1.0000 0.0000
vn 0.9370 -0.3493 0.0000
vn 0.0000 -0.3493 -0.9370
vn 0.0000 0.4269 -0.9043
vn -0.9043 0.4269 0.0000
vn 0.9043 0.4269 0.0000
vn 0.0000 0.4269 0.9043
usemtl Mortar
s off
f 9/23/7 13/24/7 15/25/7 11/26/7
f 12/27/8 17/28/8 18/29/8 16/30/8
f 16/31/9 18/32/9 20/33/9 14/34/9
f 14/35/10 10/36/10 12/37/10 16/38/10
f 10/39/11 19/40/11 17/41/11 12/42/11
f 14/43/12 20/44/12 19/45/12 10/46/12
f 21/47/7 22/48/7 18/49/7 17/50/7
f 23/51/7 21/47/7 17/50/7 19/45/7
f 22/48/7 24/52/7 20/44/7 18/49/7
f 24/52/7 23/51/7 19/45/7 20/44/7
f 11/53/13 15/54/13 22/55/13 21/56/13
f 9/57/14 11/53/14 21/58/14 23/59/14
f 15/54/15 13/60/15 24/61/15 22/62/15
f 13/60/16 9/57/16 23/63/16 24/64/16
o Cube.002_Cube.003
v 0.594877 0.748541 0.429262
v 0.718512 0.934530 0.316911
v 0.576218 0.720472 0.362262
v 0.699853 0.906461 0.249912
v 0.657336 0.707022 0.429262
v 0.780971 0.893011 0.316911
v 0.638677 0.678953 0.362262
v 0.762312 0.864941 0.249912
v 0.540476 0.700047 0.360110
v 0.568319 0.741933 0.460089
v 0.633679 0.638091 0.360110
v 0.661522 0.679976 0.460089
v 0.510447 0.654874 0.387398
v 0.538291 0.696760 0.487377
v 0.603651 0.592918 0.387398
v 0.631494 0.634803 0.487377
v 0.509873 0.625052 0.417996
v 0.529740 0.654939 0.489334
v 0.576376 0.580845 0.417996
v 0.596243 0.610731 0.489334
vt 0.375000 0.000000
vt 0.625000 0.000000
vt 0.625000 0.250000
vt 0.375000 0.250000
vt 0.625000 0.500000
vt 0.375000 0.500000
vt 0.625000 0.750000
vt 0.375000 0.750000
vt 0.625000 1.000000
vt 0.375000 1.000000
vt 0.375000 0.500000
vt 0.375000 0.250000
vt 0.875000 0.500000
vt 0.875000 0.750000
vt 0.375000 0.750000
vt 0.375000 1.000000
vt 0.375000 1.000000
vt 0.375000 0.750000
vt 0.375000 0.000000
vt 0.375000 0.500000
vt 0.375000 0.750000
vt 0.375000 0.500000
vt 0.375000 0.250000
vt 0.375000 0.000000
vt 0.125000 0.500000
vt 0.125000 0.750000
vt 0.375000 0.250000
vt 0.375000 0.000000
vt 0.375000 1.000000
vn -0.8328 0.5536 -0.0000
vn -0.2488 -0.3743 -0.8933
vn 0.8328 -0.5536 0.0000
vn 0.2488 0.3743 0.8933
vn 0.0323 0.0486 -0.9983
vn 0.4945 0.7440 -0.4494
vn -0.4732 0.8517 -0.2251
vn 0.9685 -0.1066 -0.2251
vn 0.4630 0.6965 0.5482
vn 0.5614 -0.8073 0.1819
vn -0.4945 -0.7440 0.4494
vn -0.9617 0.2051 0.1819
vn 0.0274 0.0411 0.9988
vn -0.4276 -0.6433 -0.6350
usemtl Mortar
s off
f 25/65/17 26/66/17 28/67/17 27/68/17
f 27/68/18 28/67/18 32/69/18 31/70/18
f 31/70/19 32/69/19 30/71/19 29/72/19
f 29/72/20 30/71/20 26/73/20 25/74/20
f 27/68/21 31/70/21 35/75/21 33/76/21
f 32/69/22 28/77/22 26/78/22 30/71/22
f 36/79/20 34/80/20 38/81/20 40/82/20
f 25/65/23 27/68/23 33/76/23 34/83/23
f 31/70/24 29/72/24 36/79/24 35/75/24
f 29/72/25 25/74/25 34/80/25 36/79/25
f 39/84/26 40/82/26 44/85/26 43/86/26
f 33/76/18 35/75/18 39/84/18 37/87/18
f 35/75/19 36/79/19 40/82/19 39/84/19
f 34/83/17 33/76/17 37/87/17 38/88/17
f 41/89/27 43/86/27 44/85/27 42/90/27
f 38/88/28 37/87/28 41/91/28 42/92/28
f 40/82/29 38/81/29 42/93/29 44/85/29
f 37/87/30 39/84/30 43/86/30 41/91/30
